<?xml version="1.0" encoding="UTF-8" standalone="no"?>
<!-- Generator: Adobe Illustrator 15.0.0, SVG Export Plug-In . SVG Version: 6.00 Build 0)  -->

<svg
   xmlns:dc="http://purl.org/dc/elements/1.1/"
   xmlns:cc="http://creativecommons.org/ns#"
   xmlns:rdf="http://www.w3.org/1999/02/22-rdf-syntax-ns#"
   xmlns:svg="http://www.w3.org/2000/svg"
   xmlns="http://www.w3.org/2000/svg"
   xmlns:sodipodi="http://sodipodi.sourceforge.net/DTD/sodipodi-0.dtd"
   xmlns:inkscape="http://www.inkscape.org/namespaces/inkscape"
   version="1.1"
   id="Layer_1"
   x="0px"
   y="0px"
   width="361.54129"
   height="485.00043"
   viewBox="0 0 361.54129 485.00043"
   enable-background="new 0 0 512 512"
   xml:space="preserve"
   inkscape:version="0.48.4 r9939"
   sodipodi:docname="World_IPv6_launch_logo.svg"><metadata
     id="metadata3051"><rdf:RDF><cc:Work
         rdf:about=""><dc:format>image/svg+xml</dc:format><dc:type
           rdf:resource="http://purl.org/dc/dcmitype/StillImage" /></cc:Work></rdf:RDF></metadata><defs
     id="defs3049" /><sodipodi:namedview
     pagecolor="#ffffff"
     bordercolor="#666666"
     borderopacity="1"
     objecttolerance="10"
     gridtolerance="10"
     guidetolerance="10"
     inkscape:pageopacity="0"
     inkscape:pageshadow="2"
     inkscape:window-width="823"
     inkscape:window-height="625"
     id="namedview3047"
     showgrid="false"
     fit-margin-top="0"
     fit-margin-left="0"
     fit-margin-right="0"
     fit-margin-bottom="0"
     inkscape:zoom="0.46875"
     inkscape:cx="180.77107"
     inkscape:cy="242.50022"
     inkscape:window-x="0"
     inkscape:window-y="29"
     inkscape:window-maximized="0"
     inkscape:current-layer="g3039" /><g
     id="g3039"
     transform="translate(-75.228935,-13.499793)"><path
       d="m 256.281,498.5 c -99.684,0.155 -180.9,-80.795 -181.052,-180.481 -0.011,-12.94 1.369,-25.977 4.141,-38.74 0.162,-0.744 0.525,-2.327 0.525,-2.327 0.146,-0.726 0.79,-3.644 0.952,-4.325 0.141,-0.609 24.71,-111.25 24.863,-111.953 0.145,-0.671 9.343,-42.157 9.521,-42.917 13.207,-60.35 72.068,-104.153 140.291,-104.257 68.28,-0.11 127.296,43.554 140.639,103.936 0.169,0.688 5.159,22.867 5.328,23.623 0.162,0.669 29.035,128.858 29.035,128.858 0.167,0.758 0.346,1.517 0.498,2.273 l 0.947,4.135 c 0.188,0.815 0.373,1.617 0.545,2.441 2.81,12.735 4.233,25.744 4.256,38.684 0.158,99.672 -80.815,180.914 -180.489,181.05 z"
       id="path3041"
       inkscape:connector-curvature="0"
       style="fill:#00bf38" /><path
       d="m 255.902,244.089 c -40.603,0 -73.646,33.052 -73.646,73.662 0,40.6 33.044,73.63 73.646,73.63 40.608,0 73.642,-33.03 73.642,-73.63 0,-40.61 -33.033,-73.662 -73.642,-73.662 z m -23.935,15.178 c -3.593,5.248 -6.675,11.689 -9.101,19.035 H 206.57 c 6.673,-8.329 15.399,-14.946 25.397,-19.035 z m -32.202,29.499 h 20.26 c -1.617,7.345 -2.63,15.323 -2.933,23.745 h -24.158 c 0.704,-8.512 3.107,-16.515 6.831,-23.745 z m 0,57.927 c -3.724,-7.199 -6.127,-15.237 -6.831,-23.715 h 24.158 c 0.303,8.413 1.315,16.401 2.933,23.715 h -20.26 z m 6.798,10.485 h 16.303 c 2.426,7.354 5.508,13.788 9.101,19.022 -9.998,-4.111 -18.724,-10.721 -25.404,-19.022 z m 44.111,22.468 c -6.209,-2.943 -12.272,-10.889 -16.657,-22.468 h 16.657 v 22.468 z m 0,-32.953 h -19.892 c -1.744,-7.091 -2.882,-15.056 -3.206,-23.715 h 23.098 v 23.715 z m 0,-34.182 h -23.098 c 0.324,-8.666 1.473,-16.649 3.206,-23.745 h 19.892 v 23.745 z m 0,-34.209 h -16.65 c 4.378,-11.59 10.447,-19.538 16.65,-22.48 v 22.48 z m 61.355,10.464 c 3.74,7.23 6.139,15.233 6.831,23.745 h -24.174 c -0.282,-8.422 -1.29,-16.4 -2.923,-23.745 h 20.266 z m -6.816,-10.464 h -16.296 c -2.415,-7.346 -5.491,-13.787 -9.105,-19.035 10.008,4.089 18.739,10.706 25.401,19.035 z m -44.07,-22.481 c 6.176,2.942 12.266,10.891 16.634,22.48 h -16.634 v -22.48 z m 0,32.945 h 19.854 c 1.743,7.096 2.896,15.079 3.225,23.745 h -23.079 v -23.745 z m 0,34.213 h 23.079 c -0.329,8.659 -1.481,16.624 -3.225,23.715 h -19.854 v -23.715 z m 0,56.667 v -22.468 h 16.65 c -4.385,11.579 -10.475,19.524 -16.65,22.468 z m 18.669,-3.446 c 3.614,-5.234 6.69,-11.668 9.105,-19.022 h 16.307 c -6.673,8.301 -15.404,14.911 -25.412,19.022 z m 32.217,-29.507 h -20.266 c 1.633,-7.313 2.641,-15.302 2.923,-23.715 h 24.174 c -0.692,8.478 -3.09,16.516 -6.831,23.715 z"
       id="path3043"
       inkscape:connector-curvature="0"
       style="fill:#ffffff" /><path
       d="m 255.902,173.122 c -38.859,0 -74.178,15.457 -100.187,40.473 9.087,-40.607 18.35,-82.033 18.554,-82.898 7.048,-33 41.371,-56.926 81.633,-56.926 40.289,0 74.634,24.036 81.709,57.269 l 5.731,25.62 c 1.462,6.488 7.897,10.601 14.403,9.115 6.491,-1.446 10.582,-7.877 9.127,-14.385 l -5.706,-25.487 C 351.764,81.728 307.487,49.654 255.901,49.654 c -51.569,0 -95.804,31.976 -105.189,75.881 -35.378,158.137 -36.002,160.92 -36.002,160.92 -0.032,0.17 -0.054,0.312 -0.075,0.473 -0.493,2.195 -0.92,4.434 -1.288,6.687 -0.042,0.277 -0.104,0.543 -0.157,0.812 -0.362,2.354 -0.693,4.717 -0.964,7.09 -0.026,0.22 -0.06,0.436 -0.075,0.645 -0.255,2.316 -0.449,4.66 -0.596,7.01 -0.01,0.267 -0.043,0.533 -0.043,0.801 -0.146,2.574 -0.217,5.149 -0.217,7.768 0,79.736 64.863,144.609 144.606,144.609 79.732,0 144.612,-64.873 144.612,-144.609 0.002,-79.75 -64.878,-144.619 -144.611,-144.619 z m 0,265.117 c -66.443,0 -120.496,-54.058 -120.496,-120.502 0,-2.162 0.055,-4.322 0.167,-6.465 0.011,-0.209 0.05,-0.4 0.05,-0.588 0.119,-1.984 0.271,-3.979 0.498,-5.963 0.01,-0.119 0.036,-0.232 0.036,-0.344 0.222,-2.049 0.515,-4.094 0.85,-6.141 0.012,-0.146 0.044,-0.314 0.082,-0.456 0.32,-1.929 0.683,-3.88 1.114,-5.796 11.833,-54.119 60.095,-94.748 117.699,-94.748 66.451,0 120.498,54.059 120.498,120.5 0,66.446 -54.046,120.503 -120.498,120.503 z"
       id="path3045"
       inkscape:connector-curvature="0"
       style="fill:#ffffff" /></g></svg>